HIERARCHY
ROOT simHips
{
  OFFSET 1.87914 98.8603 -7.92913
  CHANNELS 6 Xposition Yposition Zposition Zrotation Xrotation Yrotation
  JOINT simSpine
  {
    OFFSET -0.000355721 21.3001 -0.016921
    CHANNELS 3 Zrotation Xrotation Yrotation
    JOINT simLeftArm
    {
      OFFSET 13.5181 21.3012 0
      CHANNELS 3 Zrotation Xrotation Yrotation
      JOINT simLeftForeArm
      {
        OFFSET 24.5783 0 0
        CHANNELS 3 Zrotation Xrotation Yrotation
        JOINT simLeftHand
        {
          OFFSET 24.5783 0 0
          CHANNELS 3 Zrotation Xrotation Yrotation
          End Site
          {
            OFFSET 7.32568 1.52588e-005 0.0169305
          }
        }
      }
    }
    JOINT simHead
    {
      OFFSET 0 27.4458 -0.00489235
      CHANNELS 3 Zrotation Xrotation Yrotation
      End Site
      {
        OFFSET 0 0 0
      }
    }
    JOINT simRightArm
    {
      OFFSET -13.5174 21.3012 0
      CHANNELS 3 Zrotation Xrotation Yrotation
      JOINT simRightForeArm
      {
        OFFSET -24.5783 0 0
        CHANNELS 3 Zrotation Xrotation Yrotation
        JOINT simRightHand
        {
          OFFSET -24.5783 0 0
          CHANNELS 3 Zrotation Xrotation Yrotation
          End Site
          {
            OFFSET -7.32568 1.52588e-005 0.0169305
          }
        }
      }
    }
  }
  JOINT simRightUpLeg
  {
    OFFSET -8.44614 -9.41038 0.835684
    CHANNELS 3 Zrotation Xrotation Yrotation
    JOINT simRightLeg
    {
      OFFSET 0 -40.9639 0
      CHANNELS 3 Zrotation Xrotation Yrotation
      JOINT simRightFoot
      {
        OFFSET 0 -40.9639 0
        CHANNELS 3 Zrotation Xrotation Yrotation
        End Site
        {
          OFFSET 0.50614 -9.67405 14.6709
        }
      }
    }
  }
  JOINT simLeftUpLeg
  {
    OFFSET 8.44614 -9.41038 0.835684
    CHANNELS 3 Zrotation Xrotation Yrotation
    JOINT simLeftLeg
    {
      OFFSET 0 -40.9639 0
      CHANNELS 3 Zrotation Xrotation Yrotation
      JOINT simLeftFoot
      {
        OFFSET 0 -40.9639 0
        CHANNELS 3 Zrotation Xrotation Yrotation
        End Site
        {
          OFFSET -0.50614 -9.67405 14.6709
        }
      }
    }
  }
}
MOTION
Frames:	9
Frame Time:	0.0333333
2.01911 99.4182 -6.50336 -1.87836 0.190844 -8.60194 -7.74247 -2.07675 -1.96394 -63.9183 26.0504 -27.8245 -43.9816 23.4103 -50.9291 52.1895 10.2247 -66.291 1.59086 5.30287 7.47987 87.0959 4.3007 9.75931 0.790886 0.0333923 3.09145 3.75153 6.17472 3.7166 -1.68236 -16.2575 0.602746 -1.20511 31.9025 5.12126 3.11731 -6.9524 3.24348 6.59276 -14.9017 4.16819 -6.84931 35.0188 2.8729 2.46897 -11.0339 4.42378 
1.9265 99.366 -6.49819 -1.84409 0.154965 -8.63066 -7.81396 -2.01753 -2.39589 -64.7131 26.8777 -28.5867 -43.4465 22.8485 -50.3981 53.1931 9.81353 -65.9583 1.24933 5.46078 7.69598 86.8923 4.42207 9.55623 0.74394 0.0322819 3.06951 3.57251 6.33501 3.52761 -1.66966 -16.3821 0.659301 -1.15608 32.2335 5.06692 3.03151 -7.12196 3.26207 6.64906 -14.9447 4.24081 -6.88004 35.2202 2.93289 2.40892 -11.1524 4.34702 
1.82781 99.3239 -6.49327 -1.8115 0.13403 -8.64732 -7.88637 -1.98076 -2.79958 -65.4573 27.6108 -29.2735 -42.9615 22.3466 -49.9171 54.0895 9.57175 -65.5019 0.936667 5.67118 7.87271 86.6667 4.60949 9.36616 0.680625 0.0308161 3.04051 3.33181 6.27189 3.28112 -1.60068 -16.4893 0.909567 -1.09453 32.5088 4.83371 2.99163 -7.26792 3.24398 6.71639 -14.9821 4.33287 -6.89754 35.3792 2.96144 2.34854 -11.2459 4.24547 
1.72883 99.2881 -6.48914 -1.76882 0.141292 -8.69026 -7.93611 -1.98797 -3.16626 -66.1552 28.1134 -29.7605 -42.5803 21.9564 -49.5388 54.6931 9.64417 -65.0195 0.650084 5.91742 8.00296 86.4128 4.8419 9.1996 0.607037 0.027517 3.00521 3.05216 6.09314 3.0113 -1.51253 -16.6062 1.22375 -1.03965 32.7436 4.54054 2.97113 -7.3922 3.24232 6.77635 -15.0327 4.4289 -6.9093 35.507 2.95325 2.29079 -11.3218 4.19076 
1.63863 99.2482 -6.48811 -1.7165 0.176304 -8.77932 -7.94833 -2.04363 -3.49346 -66.7966 28.2912 -29.9533 -42.3409 21.7137 -49.3015 54.9113 10.0742 -64.5984 0.390235 6.16204 8.07542 86.141 5.07595 9.06538 0.531591 0.0253761 2.97101 2.76021 5.95948 2.76185 -1.46658 -16.7851 1.37599 -1.00356 33.006 4.45417 2.90797 -7.5135 3.24499 6.81791 -15.1208 4.50209 -6.92483 35.6504 2.93921 2.2338 -11.4052 4.21557 
1.56412 99.201 -6.49027 -1.66806 0.226071 -8.92111 -7.92142 -2.13593 -3.78008 -67.3511 28.1402 -29.8326 -42.2507 21.6226 -49.2121 54.7998 10.7587 -64.2913 0.161741 6.36108 8.09785 85.877 5.2597 8.97098 0.464109 0.0239012 2.94147 2.47915 6.02322 2.57919 -1.50681 -17.0076 1.21523 -0.99163 33.2927 4.79931 2.75264 -7.63617 3.17971 6.84596 -15.243 4.53756 -6.94848 35.832 2.97743 2.16871 -11.5109 4.28738 
1.50322 99.1548 -6.49079 -1.63943 0.273115 -9.1173 -7.86624 -2.24482 -4.023 -67.7846 27.7567 -29.4667 -42.2787 21.6506 -49.2397 54.5535 11.4728 -64.1075 -0.0297425 6.48119 8.11209 85.6532 5.35281 8.91651 0.412966 0.0227992 2.91609 2.22534 6.36492 2.49695 -1.59356 -17.2319 0.844786 -0.985221 33.5645 5.49509 2.51888 -7.7402 3.00566 6.88068 -15.3534 4.55306 -6.97799 36.0177 3.11049 2.08504 -11.6302 4.33702 
1.44449 99.1229 -6.48273 -1.63677 0.303416 -9.36415 -7.79942 -2.35225 -4.21675 -68.0798 27.2975 -28.9841 -42.3674 21.7402 -49.3275 54.4227 11.9608 -64.0197 -0.181968 6.51483 8.1841 85.4971 5.34262 8.88611 0.382288 0.0220324 2.90188 2.00983 6.95521 2.51666 -1.6362 -17.3901 0.598886 -0.935212 33.7492 6.13452 2.2839 -7.80064 2.77079 6.94355 -15.3967 4.58995 -7.00715 36.1465 3.32787 1.97977 -11.7385 4.31596 
1.37547 99.1153 -6.46346 -1.65221 0.311374 -9.64265 -7.73628 -2.44936 -4.35661 -68.2481 26.9117 -28.5192 -42.4585 21.8326 -49.4181 54.5911 12.0456 -63.9763 -0.297127 6.48255 8.37069 85.4228 5.24853 8.85835 0.370567 0.0215632 2.89676 1.84031 7.66029 2.61193 -1.56886 -17.4377 0.753588 -0.807397 33.7984 6.32037 2.12661 -7.80627 2.58047 7.03784 -15.34 4.67143 -7.02996 36.1678 3.57702 1.85916 -11.8086 4.22692 
